<svg width="38" height="38" viewBox="0 0 38 38" fill="none" xmlns="http://www.w3.org/2000/svg">
<path d="M0 0H38V38H0V0Z" fill="#C7FF27"/>
<path fill-rule="evenodd" clip-rule="evenodd" d="M12.1295 25.8705H8.90625V29.0937H12.1295V25.8705ZM4.07143 21.0357V33.9286H16.9643V21.0357H4.07143Z" fill="#090601"/>
<path d="M21.0357 21.0357H26.4643V33.9286H21.0357V21.0357Z" fill="#090601"/>
<path d="M21.0357 26.4643L21.0357 21.0357L33.9286 21.0357L33.9286 26.4643L21.0357 26.4643Z" fill="#090601"/>
<path d="M21 4.03845H25.8462V16.9615H21V4.03845Z" fill="#090601"/>
<path d="M29.0769 4.03844H33.923V16.9615H29.0769V4.03844Z" fill="#090601"/>
<path d="M21 8.0769L21 4.03844L33.9231 4.03843L33.9231 8.0769L21 8.0769Z" fill="#090601"/>
<path d="M21.8077 14.5384L21.8077 10.5L33.9231 10.5L33.9231 14.5384L21.8077 14.5384Z" fill="#090601"/>
<path d="M16.9643 13.5714L12.2143 13.5714L12.2143 4.07142L16.9643 4.07142L16.9643 13.5714Z" fill="#090601"/>
<path d="M8.82142 16.9643L4.07142 16.9643L4.07142 4.07142L8.82142 4.07142L8.82142 16.9643Z" fill="#090601"/>
<path d="M16.9643 12.2143L16.9643 16.9643L7.46428 16.9643L7.46428 12.2143L16.9643 12.2143Z" fill="#090601"/>
</svg>
