<svg width="80" height="80" viewBox="0 0 80 80" fill="none" xmlns="http://www.w3.org/2000/svg">
<path d="M0 0H80V80H0V0Z" fill="black"/>
<path fill-rule="evenodd" clip-rule="evenodd" d="M25.5358 54.4642H18.7501V61.2499H25.5358V54.4642ZM8.57153 44.2856V71.4285H35.7144V44.2856H8.57153Z" fill="white"/>
<path d="M44.2856 44.2856H55.7142V71.4285H44.2856V44.2856Z" fill="white"/>
<path d="M44.2856 55.7144L44.2856 44.2858L71.4285 44.2858L71.4285 55.7144L44.2856 55.7144Z" fill="white"/>
<path d="M44.2104 8.50195H54.4129V35.7084H44.2104V8.50195Z" fill="white"/>
<path d="M61.2144 8.50195H71.4168V35.7084H61.2144V8.50195Z" fill="white"/>
<path d="M44.2104 17.0039L44.2104 8.50188L71.4169 8.50188L71.4169 17.0039L44.2104 17.0039Z" fill="white"/>
<path d="M45.9109 30.6069L45.9109 22.1049L71.417 22.1049L71.417 30.6069L45.9109 30.6069Z" fill="white"/>
<path d="M35.7144 28.5713L25.7144 28.5713L25.7144 8.57129L35.7144 8.57129L35.7144 28.5713Z" fill="white"/>
<path d="M18.5715 35.7144L8.57153 35.7144L8.57153 8.5715L18.5715 8.5715L18.5715 35.7144Z" fill="white"/>
<path d="M35.7144 25.7144L35.7144 35.7144L15.7144 35.7144L15.7144 25.7144L35.7144 25.7144Z" fill="white"/>
</svg>
